<?xml version="1.0" encoding="UTF-8" standalone="no"?>
<!-- <!DOCTYPE svg PUBLIC "-//W3C//DTD SVG 1.1//EN" "http://www.w3.org/Graphics/SVG/1.1/DTD/svg11.dtd"> -->
<svg class="tsv-icon-channel" width="100%" height="100%" viewBox="0 0 22 22" version="1.1"
    xmlns="http://www.w3.org/2000/svg" xmlns:xlink="http://www.w3.org/1999/xlink" xml:space="preserve"
    xmlns:serif="http://www.serif.com/"
    style="fill-rule:evenodd;clip-rule:evenodd;stroke-linejoin:round;stroke-miterlimit:2;">
    <rect id="channel" x="0" y="-0" width="22" height="22" style="fill:none;" />
    <g id="channel1" serif:id="channel">
        <path
            d="M10,0.577C10.619,0.22 11.381,0.22 12,0.577C13.83,1.634 17.697,3.866 19.526,4.923C20.145,5.28 20.526,5.94 20.526,6.655C20.526,8.768 20.526,13.232 20.526,15.345C20.526,16.06 20.145,16.72 19.526,17.077C17.697,18.134 13.83,20.366 12,21.423C11.381,21.78 10.619,21.78 10,21.423C8.17,20.366 4.303,18.134 2.474,17.077C1.855,16.72 1.474,16.06 1.474,15.345C1.474,13.232 1.474,8.768 1.474,6.655C1.474,5.94 1.855,5.28 2.474,4.923C4.303,3.866 8.17,1.634 10,0.577Z"
            fill="#e3edf8" style="" />
        <path
            d="M10.5,20.555C10.809,20.734 11.191,20.734 11.5,20.555C13.01,19.683 17.515,17.083 19.025,16.211C19.334,16.032 19.525,15.702 19.525,15.345L19.525,6.655C19.525,6.298 19.334,5.968 19.025,5.789C17.515,4.917 13.01,2.317 11.5,1.445C11.191,1.266 10.809,1.266 10.5,1.445C8.99,2.317 4.485,4.917 2.975,5.789C2.666,5.968 2.475,6.298 2.475,6.655L2.475,15.345C2.475,15.702 2.666,16.032 2.975,16.211C4.485,17.083 8.99,19.683 10.5,20.555Z"
            fill="#a1b7cc" style="" />
        <path
            d="M2.609,15.845C2.695,15.994 2.82,16.121 2.975,16.211L10.5,20.555C10.809,20.734 11.191,20.734 11.5,20.555L19.025,16.211C19.18,16.121 19.305,15.994 19.391,15.845L11.5,11.289C11.191,11.11 10.809,11.11 10.5,11.289L2.609,15.845Z"
            fill="#e3edf8" style="" />
        <g>
            <path
                d="M18.284,16.638C18.361,16.594 18.409,16.511 18.409,16.422C18.409,16.114 18.409,15.422 18.409,15.422L3.591,15.422L3.591,16.422C3.591,16.511 3.639,16.594 3.716,16.638C4.65,17.178 10.5,20.555 10.5,20.555C10.809,20.734 11.191,20.734 11.5,20.555C11.5,20.555 17.35,17.178 18.284,16.638Z"
                fill="#a1b7cc" style="" />
            <path
                d="M18.284,16.638C18.361,16.594 18.409,16.511 18.409,16.422C18.409,16.114 18.409,15.422 18.409,15.422L11,15.422L11,20.689C11.173,20.689 11.345,20.644 11.5,20.555C11.5,20.555 17.35,17.178 18.284,16.638Z"
                fill="#cdddf2" style="" />
            <path
                d="M3.716,15.205C3.639,15.25 3.591,15.333 3.591,15.422C3.591,15.511 3.639,15.594 3.716,15.638C5.062,16.416 9.629,19.052 10.75,19.699C10.905,19.789 11.095,19.789 11.25,19.699C12.371,19.052 16.938,16.416 18.284,15.638C18.361,15.594 18.409,15.511 18.409,15.422C18.409,15.333 18.361,15.25 18.284,15.205C16.938,14.428 12.371,11.792 11.25,11.144C11.095,11.055 10.905,11.055 10.75,11.144C9.629,11.792 5.062,14.428 3.716,15.205Z"
                fill="#e3edf8" style="" />
        </g>
        <path
            d="M11,1.311C10.827,1.311 10.655,1.356 10.5,1.445L2.975,5.789C2.666,5.968 2.475,6.298 2.475,6.655L2.475,15.345C2.475,15.523 2.523,15.695 2.609,15.845L10.5,11.289C10.809,11.11 11,10.78 11,10.423L11,1.311Z"
            fill="#cdddf2" style="" />
    </g>
</svg>