<?xml version="1.0" encoding="UTF-8" standalone="no"?>
<!-- <!DOCTYPE svg PUBLIC "-//W3C//DTD SVG 1.1//EN" "http://www.w3.org/Graphics/SVG/1.1/DTD/svg11.dtd"> -->
<svg class="tsv-icon-hoster" width="100%" height="100%" viewBox="0 0 22 22" version="1.1"
    xmlns="http://www.w3.org/2000/svg" xmlns:xlink="http://www.w3.org/1999/xlink" xml:space="preserve"
    xmlns:serif="http://www.serif.com/"
    style="fill-rule:evenodd;clip-rule:evenodd;stroke-linejoin:round;stroke-miterlimit:2;">
    <rect id="hoster" x="0" y="0" width="22" height="22" style="fill:none;" />
    <path
        d="M12.002,6.812L12.002,6.58C12.002,6.223 12.193,5.892 12.502,5.714C13.236,5.29 14.597,4.505 15.33,4.081C15.64,3.903 16.021,3.903 16.33,4.081L18.757,5.482C19.319,5.851 19.66,6.478 19.66,7.155L19.66,14.845C19.66,15.56 19.279,16.22 18.66,16.577L16.259,17.964C15.964,18.104 15.616,18.091 15.33,17.926L15.13,17.811L15.13,9.369C15.13,8.904 14.882,8.475 14.48,8.243L12.002,6.812ZM17.91,7.013C18.065,6.924 18.256,6.924 18.41,7.013C18.565,7.102 18.66,7.267 18.66,7.446C18.66,9.242 18.66,13.334 18.66,14.848C18.66,15.205 18.47,15.535 18.16,15.714C17.545,16.069 16.58,16.626 16.58,16.626C16.426,16.715 16.235,16.715 16.08,16.626C15.926,16.537 15.83,16.372 15.83,16.193C15.83,14.55 15.83,10.178 15.83,8.79C15.83,8.433 16.021,8.102 16.331,7.924C16.331,7.924 17.229,7.406 17.91,7.013Z"
        fill="#e0e0e0" style="" />
    <path
        d="M6.87,17.811L6.67,17.926C6.384,18.091 6.036,18.104 5.741,17.964L3.34,16.577C2.73,16.225 2.351,15.579 2.34,14.876L2.342,7.067C2.37,6.427 2.703,5.84 3.236,5.487L5.674,4.081C5.983,3.902 6.365,3.903 6.674,4.081C6.674,4.081 8.572,5.178 9.5,5.715C9.809,5.894 10,6.224 10,6.581L10,6.811L8.997,7.39C8.979,7.234 8.888,7.094 8.75,7.014C8.595,6.925 8.404,6.925 8.25,7.014C7.569,7.407 6.67,7.926 6.67,7.926C6.36,8.105 6.17,8.435 6.17,8.792C6.17,10.18 6.17,14.55 6.17,16.193C6.17,16.371 6.265,16.537 6.42,16.626C6.558,16.706 6.725,16.714 6.87,16.651L6.87,17.811ZM5.004,11.256C5.004,11.091 4.892,10.892 4.754,10.812L3.254,9.947C3.116,9.868 3.004,9.938 3.004,10.103L3.004,10.703C3.004,10.869 3.116,11.068 3.254,11.147L4.754,12.012C4.892,12.092 5.004,12.022 5.004,11.856L5.004,11.256ZM5,9.163C5,8.997 4.888,8.798 4.75,8.718L3.25,7.853C3.112,7.774 3,7.844 3,8.009L3,8.609C3,8.775 3.112,8.974 3.25,9.053L4.75,9.918C4.888,9.998 5,9.928 5,9.763L5,9.163Z"
        fill="#e0e0e0" style="" />
    <path
        d="M7.17,4.022L7.17,3.791C7.17,3.434 7.361,3.104 7.67,2.925L10.109,1.519C10.707,1.221 11.417,1.241 12,1.577L14.334,2.925C14.643,3.104 14.834,3.434 14.834,3.792L14.833,4.022L13.827,4.603C13.809,4.446 13.719,4.305 13.58,4.226C13.425,4.136 13.235,4.136 13.08,4.225C12.399,4.618 11.5,5.136 11.5,5.136C11.191,5.315 11,5.645 11,6.003L11,6.435C10.776,6.435 10.551,6.493 10.35,6.609L10.3,6.638L10.3,6.581C10.3,6.117 10.052,5.688 9.65,5.455L7.17,4.022Z"
        fill="#e0e0e0" style="" />
    <path
        d="M7.592,19.032C7.329,18.846 7.17,18.543 7.17,18.216C7.17,16.45 7.17,11.135 7.17,9.369C7.17,9.011 7.361,8.681 7.67,8.503C8.404,8.079 9.766,7.293 10.5,6.869C10.809,6.69 11.191,6.69 11.5,6.869C12.234,7.293 13.596,8.079 14.33,8.503C14.639,8.681 14.83,9.011 14.83,9.369L14.83,18.216C14.83,18.543 14.671,18.846 14.408,19.032L12,20.423C11.381,20.78 10.619,20.78 10,20.423L7.592,19.032ZM13.08,9.802C13.235,9.713 13.425,9.713 13.58,9.802C13.735,9.891 13.83,10.057 13.83,10.235C13.83,12.032 13.83,16.124 13.83,17.638C13.83,17.995 13.639,18.325 13.33,18.504C12.715,18.859 11.75,19.416 11.75,19.416C11.595,19.505 11.405,19.505 11.25,19.416C11.095,19.327 11,19.162 11,18.983C11,17.34 11,12.968 11,11.581C11,11.224 11.191,10.894 11.5,10.715C11.5,10.715 12.399,10.196 13.08,9.802ZM10,14.172C10,14.006 9.888,13.807 9.75,13.728L8.25,12.863C8.112,12.783 8,12.853 8,13.019L8,13.619C8,13.784 8.112,13.983 8.25,14.063L9.75,14.928C9.888,15.007 10,14.938 10,14.772L10,14.172ZM9.996,12.042C9.996,11.876 9.884,11.677 9.746,11.597L8.246,10.732C8.108,10.653 7.996,10.723 7.996,10.888L7.996,11.488C7.996,11.654 8.108,11.853 8.246,11.932L9.746,12.797C9.884,12.877 9.996,12.807 9.996,12.642L9.996,12.042Z"
        fill="#e0e0e0" style="" />
    <g>
        <path
            d="M11.44,12.486C11.44,12.32 11.552,12.121 11.69,12.042L13.19,11.177C13.328,11.097 13.44,11.167 13.44,11.333L13.44,11.933C13.44,12.098 13.328,12.297 13.19,12.377L11.69,13.242C11.552,13.321 11.44,13.252 11.44,13.086L11.44,12.486Z"
            fill="#e0e0e0" style="" />
        <path
            d="M11.436,14.69C11.436,14.524 11.548,14.325 11.686,14.246L13.186,13.381C13.324,13.301 13.436,13.371 13.436,13.536L13.436,14.136C13.436,14.302 13.324,14.501 13.186,14.581L11.686,15.446C11.548,15.525 11.436,15.455 11.436,15.29L11.436,14.69Z"
            fill="#e0e0e0" style="" />
    </g>
    <g>
        <path
            d="M16.238,9.753C16.238,9.588 16.35,9.389 16.488,9.309L17.988,8.444C18.126,8.365 18.238,8.434 18.238,8.6L18.238,9.2C18.238,9.366 18.126,9.565 17.988,9.644L16.488,10.509C16.35,10.589 16.238,10.519 16.238,10.353L16.238,9.753Z"
            fill="#e0e0e0" style="" />
        <path
            d="M16.234,11.957C16.234,11.791 16.347,11.592 16.484,11.513L17.984,10.648C18.122,10.568 18.234,10.638 18.234,10.804L18.234,11.404C18.234,11.569 18.122,11.768 17.984,11.848L16.484,12.713C16.347,12.792 16.234,12.723 16.234,12.557L16.234,11.957Z"
            fill="#e0e0e0" style="" />
    </g>
</svg>