<?xml version="1.0" encoding="UTF-8" standalone="no"?>
<!-- <!DOCTYPE svg PUBLIC "-//W3C//DTD SVG 1.1//EN" "http://www.w3.org/Graphics/SVG/1.1/DTD/svg11.dtd"> -->
<svg class="tsv-icon-server" width="100%" height="100%" viewBox="0 0 22 22" version="1.1"
    xmlns="http://www.w3.org/2000/svg" xmlns:xlink="http://www.w3.org/1999/xlink" xml:space="preserve"
    xmlns:serif="http://www.serif.com/"
    style="fill-rule:evenodd;clip-rule:evenodd;stroke-linejoin:round;stroke-miterlimit:2;">
    <rect id="server" x="0" y="0" width="22" height="22" style="fill:none;" />
    <clipPath id="_clip1">
        <rect x="0" y="0" width="22" height="22" />
    </clipPath>
    <g clip-path="url(#_clip1)">
        <g>
            <path
                d="M10,0.577C10.619,0.22 11.381,0.22 12,0.577C13.83,1.634 17.697,3.866 19.526,4.923C20.145,5.28 20.526,5.94 20.526,6.655C20.526,8.768 20.526,13.232 20.526,15.345C20.526,16.06 20.145,16.72 19.526,17.077C17.697,18.134 13.83,20.366 12,21.423C11.381,21.78 10.619,21.78 10,21.423C8.17,20.366 4.303,18.134 2.474,17.077C1.855,16.72 1.474,16.06 1.474,15.345C1.474,13.232 1.474,8.768 1.474,6.655C1.474,5.94 1.855,5.28 2.474,4.923C4.303,3.866 8.17,1.634 10,0.577Z"
                style="fill:rgb(226,236,247);" />
            <rect x="11" y="0" width="11" height="22" style="fill:none;" />
            <clipPath id="_clip2">
                <rect x="11" y="0" width="11" height="22" />
            </clipPath>
            <g clip-path="url(#_clip2)">
                <path id="inner-frame" serif:id="inner frame"
                    d="M10.5,20.555C10.809,20.734 11.191,20.734 11.5,20.555C13.01,19.683 17.515,17.083 19.025,16.211C19.334,16.032 19.525,15.702 19.525,15.345L19.525,6.655C19.525,6.298 19.334,5.968 19.025,5.789C17.515,4.917 13.01,2.317 11.5,1.445C11.191,1.266 10.809,1.266 10.5,1.445C8.99,2.317 4.485,4.917 2.975,5.789C2.666,5.968 2.475,6.298 2.475,6.655L2.475,15.345C2.475,15.702 2.666,16.032 2.975,16.211C4.485,17.083 8.99,19.683 10.5,20.555Z"
                    fill="#A1B7CC" style="" />
            </g>
            <rect x="0" y="0" width="11" height="22" style="fill:none;" />
            <clipPath id="_clip3">
                <rect x="0" y="0" width="11" height="22" />
            </clipPath>
            <g clip-path="url(#_clip3)">
                <path id="inner-frame1" serif:id="inner frame"
                    d="M10.5,20.555C10.809,20.734 11.191,20.734 11.5,20.555C13.01,19.683 17.515,17.083 19.025,16.211C19.334,16.032 19.525,15.702 19.525,15.345L19.525,6.655C19.525,6.298 19.334,5.968 19.025,5.789C17.515,4.917 13.01,2.317 11.5,1.445C11.191,1.266 10.809,1.266 10.5,1.445C8.99,2.317 4.485,4.917 2.975,5.789C2.666,5.968 2.475,6.298 2.475,6.655L2.475,15.345C2.475,15.702 2.666,16.032 2.975,16.211C4.485,17.083 8.99,19.683 10.5,20.555Z"
                    fill="#CDDDF2" style="" />
            </g>
            <path id="inner-frame2" serif:id="inner frame"
                d="M10.469,20.538L3.716,16.638C3.639,16.594 3.591,16.511 3.591,16.422L3.591,15.422L18.409,15.422C18.409,15.422 18.409,16.114 18.409,16.422C18.409,16.511 18.361,16.594 18.284,16.638L19.025,16.211C19.334,16.032 19.525,15.702 19.525,15.345L19.525,6.655C19.525,6.298 19.334,5.968 19.025,5.789C17.515,4.917 13.01,2.317 11.5,1.445C11.191,1.266 10.809,1.266 10.5,1.445C8.99,2.317 4.485,4.917 2.975,5.789C2.666,5.968 2.475,6.298 2.475,6.655L2.475,15.345C2.475,15.702 2.666,16.032 2.975,16.211L10.469,20.538Z"
                fill="rgb(0,0,0)" style="" />
            <g>
                <path
                    d="M18.284,16.638C18.361,16.594 18.409,16.511 18.409,16.422C18.409,16.114 18.409,15.422 18.409,15.422L3.591,15.422L3.591,16.422C3.591,16.511 3.639,16.594 3.716,16.638C4.65,17.178 10.5,20.555 10.5,20.555C10.809,20.734 11.191,20.734 11.5,20.555C11.5,20.555 17.35,17.178 18.284,16.638Z"
                    fill="#A1B7CC" style="" />
                <path
                    d="M18.284,16.638C18.361,16.594 18.409,16.511 18.409,16.422C18.409,16.114 18.409,15.422 18.409,15.422L11,15.422L11,20.689C11.173,20.689 11.345,20.644 11.5,20.555C11.5,20.555 17.35,17.178 18.284,16.638Z"
                    fill="#CDDDF2" style="" />
                <path
                    d="M3.716,15.205C3.639,15.25 3.591,15.333 3.591,15.422C3.591,15.511 3.639,15.594 3.716,15.638C5.062,16.416 9.629,19.052 10.75,19.699C10.905,19.789 11.095,19.789 11.25,19.699C12.371,19.052 16.938,16.416 18.284,15.638C18.361,15.594 18.409,15.511 18.409,15.422C18.409,15.333 18.361,15.25 18.284,15.205C16.938,14.428 12.371,11.792 11.25,11.144C11.095,11.055 10.905,11.055 10.75,11.144C9.629,11.792 5.062,14.428 3.716,15.205Z"
                    fill="rgb(227,237,248)" style="" />
            </g>
            <g>
                <path
                    d="M18.284,13.216C18.361,13.171 18.409,13.089 18.409,12.999C18.409,12.692 18.409,11.999 18.409,11.999L3.591,11.999L3.591,12.999C3.591,13.089 3.639,13.171 3.716,13.216C4.65,13.755 10.5,17.132 10.5,17.132C10.809,17.311 11.191,17.311 11.5,17.132C11.5,17.132 17.35,13.755 18.284,13.216Z"
                    fill="#A1B7CC" style="" />
                <path
                    d="M18.284,13.216C18.361,13.171 18.409,13.089 18.409,12.999C18.409,12.692 18.409,11.999 18.409,11.999L11,11.999L11,17.266C11.173,17.266 11.345,17.222 11.5,17.132C11.5,17.132 17.35,13.755 18.284,13.216Z"
                    fill="#CDDDF2" style="" />
                <path
                    d="M3.716,11.783C3.639,11.827 3.591,11.91 3.591,11.999C3.591,12.089 3.639,12.171 3.716,12.216C5.062,12.993 9.629,15.63 10.75,16.277C10.905,16.366 11.095,16.366 11.25,16.277C12.371,15.63 16.938,12.993 18.284,12.216C18.361,12.171 18.409,12.089 18.409,11.999C18.409,11.91 18.361,11.827 18.284,11.783C16.938,11.006 12.371,8.369 11.25,7.722C11.095,7.632 10.905,7.632 10.75,7.722C9.629,8.369 5.062,11.006 3.716,11.783Z"
                    fill="rgb(227,237,248)" style="" />
            </g>
            <g>
                <path
                    d="M18.284,9.638C18.361,9.594 18.409,9.511 18.409,9.422C18.409,9.114 18.409,8.422 18.409,8.422L3.591,8.422L3.591,9.422C3.591,9.511 3.639,9.594 3.716,9.638C4.65,10.178 10.5,13.555 10.5,13.555C10.809,13.734 11.191,13.734 11.5,13.555C11.5,13.555 17.35,10.178 18.284,9.638Z"
                    fill="#A1B7CC" style="" />
                <path
                    d="M18.284,9.638C18.361,9.594 18.409,9.511 18.409,9.422C18.409,9.114 18.409,8.422 18.409,8.422L11,8.422L11,13.689C11.173,13.689 11.345,13.644 11.5,13.555C11.5,13.555 17.35,10.178 18.284,9.638Z"
                    fill="#CDDDF2" style="" />
                <path
                    d="M3.716,8.205C3.639,8.25 3.591,8.333 3.591,8.422C3.591,8.511 3.639,8.594 3.716,8.638C5.062,9.416 9.629,12.052 10.75,12.699C10.905,12.789 11.095,12.789 11.25,12.699C12.371,12.052 16.938,9.416 18.284,8.638C18.361,8.594 18.409,8.511 18.409,8.422C18.409,8.333 18.361,8.25 18.284,8.205C16.938,7.428 12.371,4.792 11.25,4.144C11.095,4.055 10.905,4.055 10.75,4.144C9.629,4.792 5.062,7.428 3.716,8.205Z"
                    fill="rgb(227,237,248)" style="" />
            </g>
        </g>
    </g>
</svg>