<?xml version="1.0" encoding="utf-8"?>
<!-- Generator: Adobe Illustrator 25.4.8, SVG Export Plug-In . SVG Version: 6.00 Build 0)  -->
<svg version="1.1" id="Layer_1" xmlns="http://www.w3.org/2000/svg" xmlns:xlink="http://www.w3.org/1999/xlink" x="0px" y="0px"
	 viewBox="0 0 648 687.4" style="enable-background:new 0 0 648 687.4;" xml:space="preserve">
<style type="text/css">
	.st0{fill:#00212F;}
	.st1{fill:#268BEB;}
	.st2{fill:#185B9E;}
	.st3{fill:#FFFFFF;}
	.st4{fill:#FAC446;}
	.st5{fill:#D8A32C;}
	.st6{fill:#1F71C4;}
</style>
<path class="st0" d="M641.5,422.9c-14,68.2-49.1,130.6-101.1,177c-4.8,4.3-9.9,8.5-15.3,12.6c-35.1,26.8-73.1,45.8-114.3,57
	c-36.9,10.1-76.7,14.2-115.1,10.4c-39.9-4-76.9-14.3-110.9-31c-10-4.9-20.4-10.5-30.9-16.8c-0.3-0.2-0.6-0.2-0.9,0.1
	c-17,18.1-35.7,35.3-55.3,49.3c-5.7,4-13.5,8.6-20.3,3.7c-4.9-3.5-5.5-10.5-3.8-16c0.4-0.2,33.4-63,29.5-65.6
	C79.3,616,54.7,625,29.2,630.8c-2.8,0.6-5.4,0.7-7.9,0.2c-8.6-1.7-11.1-11.6-6.6-18.2c1.9-2.7,4.5-5.7,7.8-8.8
	c0.4-0.1,23.3-20.9,53.2-40.2c0.6-0.4-4-5.9-4-5.9c-18.5-20.3-33.2-43.9-44.4-69.1C12.8,456.1,4.1,422,1.1,386.6
	c-2.2-26.2-1.4-52.4,2.5-78.7c0.8-5.2,2.2-12.5,4.3-21.9c8.6-38.9,24.4-75,47.1-106.8c0.4-0.7,0.5-1.5,0.2-2.2
	c-11.9-28.5-16.3-60.1-8.9-90.8c0.9-3.4,1.9-6.5,3.2-9.2c3.2-6.8,9.8-11.2,17.5-9.1c3.9,1,7,3.6,9.2,7.7c0,11.4,20,45.9,27.9,46.8
	c0-0.2,0.1-0.3,0.2-0.5l18.5-17.3c0.4-0.5,0.7-1.1,0.7-1.7c0.2-25.7,5.9-49.2,17-70.3C146.1,22,152.6,12.8,160,5.2
	c9-9.3,21.7-5.7,24.5,6.9c1.4,6.7,2.9,13.3,4.4,19.6c2.2,9.6,5.2,18.8,9.2,27.7c0.2,0.4,0.4,0.4,0.7,0.3c16-7.2,34.3-13.2,54.8-17.8
	c48.8-11,97-10.7,144.6,1c22.9,5.6,45.1,13.6,66.7,24.1c45.3,21.9,83.4,52.7,114.3,92.4c0.5,0.6,1.2,0.9,2,0.9
	c15.3-0.6,31.2-1.6,46.2-0.3c4.5,0.4,9.9,3.3,10.4,8.2c0.6,5.7-4.3,9.3-8.9,11.2c-9,3.6-18.5,7-28.5,10.3c-0.3,0.1-0.4,0.3-0.2,0.6
	c4.4,7.9,9.1,15.5,13.3,23.7c8.8,17,16.1,35.7,21.9,55.9C649.9,320.5,651.9,371.5,641.5,422.9z"/>
<path class="st1" d="M403.4,419.8c-18.7,29-53.2,45.7-86.8,49.4c-16.5,1.8-32.8,1.2-48.8-1.7c-3.5-0.6-7-1.3-10.6-2
	c-1-0.2-1-0.4,0-0.6c11-2.3,22.5-5.7,34.5-10.2c4.9-1.8,12.3-4.5,15.1-8.6c2.9-4.2,2.8-8.4-0.2-12.6c-2.4-3.4-5.5-4.9-9.4-4.5
	c-3.5,0.4-7.4,1-11.8,1.8c-18.2,3.5-36.6,4.3-55,2.2c-24.4-2.7-47-10.7-67.7-24c-4.8-3.1-8.8-6.3-11.8-9.5c-1.5-1.5-2.2-3.5-2.3-5.9
	c-0.3-6.2,2.4-10.1,7.9-11.6c2.3-0.6,6.2-0.1,8.8,0.5c7.2,1.5,14.1,2.9,20.9,4c23.2,4,46.2,4.8,69.1,2.6c5-0.5,10-1.4,15.1-2.6
	c8.8-2.2,13.4-13.5,6.2-20.1c-2.6-2.4-6.2-3.5-10.8-3.5c-19.8,0.3-40.4-2.3-61.8-7.8c-6.8-1.8-13-3.8-18.9-6
	c-38-14.7-74.5-38.8-97.2-73.7c-1.1-1.7-2-3.5-2.7-5.5c-3-8.7,5.9-17.3,14.2-14.6c2.4,0.8,4.6,1.9,6.6,3.3
	c11.6,8.2,23.2,15.7,34.8,22.5c21.7,12.7,44.3,22.1,67.8,28.2c7.9,2,18.6,4.1,24-4.2c2.9-4.5,1.9-10.7-2-14.2c-2-1.8-4.2-3.2-6.8-4
	c-6.3-2-12.5-4.1-18.4-6.3c-23.5-8.8-45.2-21.2-65.1-37.3c-19-15.5-35.4-35.7-48.3-57c-9-14.8-15.5-30.5-19.5-47.1
	c-1.6-6.6-2.5-13.1-2.8-19.4c-0.1-1.7-0.1-3.5-0.1-5.2c0-1.6,0-3.2,0.1-4.8c0,0,0-0.1,0-0.2c0-0.8,0.1-1.6,0.1-2.5
	c0-0.7,0.1-1.4,0.1-2V105c0-0.3,0-0.6,0.1-0.9c0.1-1.3,0.3-2.6,0.4-3.9c0.1-0.8,0.2-1.5,0.3-2.3c0.1-0.6,0.2-1.2,0.3-1.8
	c0.1-0.5,0.2-1.1,0.3-1.6c0.2-1.4,0.5-2.8,0.8-4.1c0.1-0.6,0.3-1.3,0.4-1.9c0.2-0.8,0.4-1.6,0.6-2.3c0.2-0.8,0.4-1.6,0.6-2.3
	c0.2-0.8,0.4-1.5,0.7-2.3c0.2-0.8,0.5-1.5,0.7-2.3s0.5-1.5,0.8-2.3c0.1-0.4,0.3-0.8,0.4-1.2c0.2,0.3,0.5,0.7,0.7,1
	c0.4,0.5,0.8,1.1,1.2,1.7c0.4,0.5,0.8,1.1,1.1,1.7c0.5,0.8,1,1.5,1.5,2.3c0.3,0.5,0.7,1,1,1.5c1.3,2.1,2.6,4.3,3.8,6.4
	c0.5,1,1.1,1.9,1.6,2.9c1.6,2.9,3.1,5.6,4.6,8.3c0.7,1.2,1.4,2.4,2.1,3.6c1.5,2.7,3.1,5.3,4.5,7.8c0.7,1.2,1.4,2.4,2.1,3.6
	c0.3,0.6,0.7,1.2,1,1.7c0.6,1,1.2,2.1,1.9,3.1c0.1,0.1,0.1,0.2,0.2,0.3c0.2,0.4,0.5,0.4,0.7,0.2c-0.1,0.2-0.2,0.3-0.2,0.5
	c0,0.1,0,0.3,0,0.4s0.1,0.2,0.1,0.2l0,0c0.2,0.4,0.5,0.9,0.7,1.4c0.2,0.4,0.5,0.8,0.7,1.3c0,0,0,0.1,0.1,0.1c0.5,0.8,1,1.7,1.5,2.5
	c0.3,0.5,0.6,1,0.9,1.5c0.1,0.2,0.2,0.3,0.3,0.5c2.2,3.4,4.8,7.2,7.8,11.4c18.9,26.2,38.8,48.2,59.6,66c19.8,16.9,40.5,31,62.3,42.1
	c16.7,8.5,35,15.9,53.3,21.8c15.8,5.1,31.2,10.1,46.3,15.1c13.5,4.4,26.4,11.1,38.9,20.1C412.4,332.7,428.2,381.3,403.4,419.8z"/>
<path class="st1" d="M330.7,208.2l-3.2,0.8l-5.8-32.3l14.5-22.8c13-13.7,28.7-23.7,46.9-30.2c25.2-8.9,51.1-11,77.9-6.4
	c20.6,3.5,39.7,11.2,57.4,22.9c10,6.7,18.1,14,24.4,22.1c1,1.3,2.1,2.7,3.2,4c0.9,1.1,0.7,1.4-0.6,0.8c-4.1-1.9-8.2-3.7-12.4-5.3
	c-33.4-13.5-71.3-18.7-106.7-12.4c-28.2,5-52.4,16.1-72.5,33.1C345.9,189.1,338.1,197.7,330.7,208.2z"/>
<path class="st2" d="M336.2,153.9c-0.3,0.9-1,2.3-2.2,4.4c-1.1,2-2.7,5.7-4.6,11.2c-1.4,3.8-2.2,7.6-2.6,11.2
	c-0.5,4.9-0.6,9.6-0.1,14.1c0.5,4.3,1.8,8.8,4,13.4c-1.8,3.3-3.7,6.7-5.8,10.1c-1.5,2.5-2.7,5.1-3.6,7.8c-0.2,0.5-0.7,0.7-1.1,0.5
	c-0.1,0-0.2-0.1-0.2-0.1c-3.7-2.6-7.6-3.3-11.9-2c-5.8,1.7-8.7,5.8-10.6,11.2c-0.6,1.8-0.9,1.8-0.8-0.2c0.3-9.7,1.3-17.9,4.5-27.8
	C307.8,187.4,320.5,168.7,336.2,153.9z"/>
<ellipse transform="matrix(0.2113 -0.9774 0.9774 0.2113 166.663 599.8411)" class="st3" cx="455" cy="196.6" rx="25.4" ry="25.7"/>
<path class="st3" d="M554.7,232.8c0,0-107.5,114-107.8,114.8c-5.4-13.8-12.8-25.8-21.6-37.7c-0.6-0.9-0.8-1.8-0.4-2.8
	c1.5-4.5,2.8-9.3,4.5-13.5c8.3-19.9,20.8-36.5,37.3-49.8c10.4-8.4,21.7-15.5,33.7-21.3c23.4-11.2,48.2-19.6,74.5-25.3
	c1.8-0.4,3.6-0.9,5.3-1.6c0.4-0.1,0.8,0,0.9,0.4c0.1,0.3,0,0.6-0.3,0.9C569.8,207.1,561.1,219,554.7,232.8z"/>
<path class="st4" d="M554.7,232.8c-3.5,8.7-5.7,15.8-6.8,21.2c-3.4,17.9-1.7,34.8,2.5,51.6c1.7,6.9,3.3,13.4,4.6,19.5
	c12.8,59.7-2.3,122.4-45.7,166.1c-22.1,22.3-47,37.7-74.8,46.3c-28.2,8.7-57.3,9.9-87.5,3.4c0.1,0-3.3-0.8-3.6-1.8l-2.6-13.2
	l114.9-70.6l0.9-134l3-15.8c12.9-23.4,31.1-42,54.7-55.8c11.4-6.7,23.4-12.1,36-16.2C551.4,233.2,552.8,232.9,554.7,232.8z"/>
<path class="st5" d="M459.7,305.5c2.7,8,5.4,15.8,8,23.5c3.6,10.5,6.1,18.8,7.3,24.9c0.7,3.5,1.4,8.7,2.2,15.7
	c0.6,5.8,0.9,11,0.9,15.7c-0.2,12.1-1.5,24-4,35.9c-0.6,3.1-1.5,6.3-2.7,9.7c-7.4,22-19.6,41.2-36.6,57.7
	c-7.5,7.3-15.4,13.4-23.8,18.3c-16,9.5-32.9,15.6-50.8,18.4c-4.6,0.7-9.4,1.4-14.2,2c-0.8,0.1-1.3,0.5-1.7,1.2
	c-0.3,0.5-0.3,1.2-0.2,2.1c0.6,3.6,1.5,7,2.9,10.3c-17.7-4.3-34.1-11.2-49.5-20.8c-3.7-2.3-7.1-4.9-10.3-7.7
	c-0.4-0.4-0.3-0.5,0.2-0.5c13.3,1.1,26.5,0.9,39.6-0.5c50.2-5.5,99-32.9,118.3-81.5c10.6-26.7,11.1-54.2,1.6-82.3
	c0.2-0.8,0.4-2.6,0.4-5.6c0-4.1,1.3-9.9,3.9-17.3C453.6,318.4,456.3,312,459.7,305.5z"/>
<path class="st6" d="M128.8,536.9c-4.4,0.2-55.7,21.8-56.5,21.7c1.1-4.1,2.9-7.8,3.5-9c4.6-9.7,10.5-18.3,17.8-25.7
	c10.7-10.9,22.4-19.5,35.2-25.8c15.3-7.6,31.8-12.9,49.1-15.2c14.5-2,27.9-2.9,40.4-2.9c0.2,0,0.4,0.1,0.6,0.3
	c0.2,0.2,0.2,0.5,0,0.7l-0.1,0.1c-8,4.5-16.1,9.3-24.1,14.3c-18.8,11.9-38.5,24.4-59.2,37.8C133.2,534.6,131,535.8,128.8,536.9z"/>
<path class="st2" d="M228.8,512.7c-0.2,0.6-0.6,1.1-1.1,1.6c-4.3,4-44.7,44.9-61.7,62.6c-4.8,5-72.4,85.8-92.4,92.3
	c7.8-27.4,26.7-59.2,29.1-63.4c0.6-1.3,0.4-2,0.4-2.2c1-0.6,2.5-1.9,3-2.5c12.8-15.7,27.3-30.6,43.4-43
	c15.2-11.7,31.4-22.1,48.8-31.1c9.7-5,19.6-10,29.7-14.9C228.9,511.6,229.2,511.8,228.8,512.7z"/>
<path class="st2" d="M128.5,537.1c-0.6,0.4-1.1,0.7-1.7,1.1C96.9,557.5,67.3,577.1,38,597c-1.2,0.9-5.6,3.8-7.5,4.8
	c-1.9,1-7,2.9-8.3,2.4c0,0,0.5-0.4,0.7-0.6c14.4-16.5,40.1-39.4,49.4-45c0.6-0.3,18.6-10.5,26.8-13.8S120.5,536.8,128.5,537.1z"/>
<path class="st2" d="M207.2,600.8c-12,11.4-27.4,19.5-43.6,23.5c-0.6,0.2-1.2,0.2-1.8,0.1c-0.2,0-0.3-0.2-0.3-0.4
	c0-0.1,0-0.1,0.1-0.2c3.1-3.4,6.4-6.3,9.5-9.7c11.8-12.8,23.7-25.7,35.6-38.5c9-9.7,18.6-19.3,28-28.9c1.3-1.3,1.7-1,1.5,0.7
	c-0.9,5.8-3.1,11.8-5.1,17.4C226,578.4,218.1,590.4,207.2,600.8z"/>
</svg>
